<?xml version="1.0" encoding="utf-8"?>
<!-- Generator: Adobe Illustrator 23.0.2, SVG Export Plug-In . SVG Version: 6.00 Build 0)  -->
<svg version="1.1" xmlns="http://www.w3.org/2000/svg" xmlns:xlink="http://www.w3.org/1999/xlink" x="0px" y="0px"
	 viewBox="0 0 500 500" style="enable-background:new 0 0 500 500;" xml:space="preserve">
<style type="text/css">
	.st0{display:none;}
	.st1{display:inline;fill:#2D4059;}
	.st2{display:inline;fill:#EA5455;}
	.st3{display:inline;fill:none;stroke:#2D4059;stroke-width:36;stroke-linecap:round;stroke-linejoin:round;stroke-miterlimit:10;}
	.st4{display:inline;fill:none;stroke:#EA5455;stroke-width:36;stroke-linecap:round;stroke-linejoin:round;stroke-miterlimit:10;}
	.st5{fill:#EA5455;}
	.st6{fill:#2D4059;}
	.st7{fill:#FFFFFF;}
	.st8{fill:#EA5454;}
	.st9{fill:#2D3F59;}
	.st10{fill:none;}
	.st11{fill:none;stroke:#2D4059;stroke-width:36.0358;stroke-linecap:round;stroke-linejoin:round;stroke-miterlimit:10;}
	.st12{fill:none;stroke:#EA5455;stroke-width:26;stroke-linecap:round;stroke-linejoin:round;stroke-miterlimit:10;}
	.st13{fill:none;stroke:#2D4059;stroke-width:36;stroke-linecap:round;stroke-linejoin:round;stroke-miterlimit:10;}
	.st14{fill:none;stroke:#EA5455;stroke-width:36;stroke-linecap:round;stroke-linejoin:round;stroke-miterlimit:10;}
	.st15{fill:none;stroke:#EA5455;stroke-width:26;stroke-linecap:round;stroke-miterlimit:10;}
	.st16{display:inline;}
	
		.st17{display:inline;fill:none;stroke:#2D4059;stroke-width:36.3171;stroke-linecap:round;stroke-linejoin:round;stroke-miterlimit:10;}
	.st18{display:inline;fill:none;stroke:#2D4059;stroke-width:20;stroke-linecap:round;stroke-linejoin:round;stroke-miterlimit:10;}
	.st19{fill:none;stroke:#2D4059;stroke-width:20;stroke-linecap:round;stroke-linejoin:round;stroke-miterlimit:10;}
	.st20{display:inline;fill:none;stroke:#EA5455;stroke-width:20;stroke-linejoin:round;stroke-miterlimit:10;}
	.st21{display:inline;fill:#FFFFFF;stroke:#000000;stroke-width:18;stroke-miterlimit:10;}
	.st22{display:inline;fill:none;stroke:#000000;stroke-width:18;stroke-miterlimit:10;}
	
		.st23{display:inline;fill:#FFFFFF;stroke:#000000;stroke-width:18;stroke-linecap:round;stroke-linejoin:round;stroke-miterlimit:10;}
	.st24{display:inline;stroke:#FFFFFF;stroke-width:18;stroke-linecap:round;stroke-linejoin:round;stroke-miterlimit:10;}
	.st25{display:inline;fill:none;stroke:#FFFFFF;stroke-width:18;stroke-linecap:round;stroke-linejoin:round;stroke-miterlimit:10;}
	.st26{display:inline;fill:#313E4B;stroke:#3D3D3D;stroke-width:18;stroke-linejoin:round;stroke-miterlimit:10;}
	.st27{display:inline;fill:none;stroke:#3D3D3D;stroke-width:18;stroke-linecap:round;stroke-linejoin:round;stroke-miterlimit:10;}
	.st28{display:inline;fill:none;stroke:#2D4059;stroke-width:18;stroke-linejoin:round;stroke-miterlimit:10;}
	.st29{display:inline;fill:none;stroke:#EA5455;stroke-width:18;stroke-linejoin:round;stroke-miterlimit:10;}
	.st30{display:inline;fill:#313E4B;}
	.st31{display:inline;fill:none;stroke:#2D4059;stroke-width:20;stroke-linejoin:round;stroke-miterlimit:10;}
	.st32{display:inline;fill:#313E4B;stroke:#FFFFFF;stroke-width:18;stroke-linejoin:round;stroke-miterlimit:10;}
	.st33{display:inline;fill:#FFFFFF;stroke:#FFFFFF;stroke-width:18;stroke-linejoin:round;stroke-miterlimit:10;}
	.st34{display:inline;fill:none;stroke:#FFFFFF;stroke-width:18;stroke-linejoin:round;stroke-miterlimit:10;}
	.st35{display:inline;fill:none;stroke:#3D3D3D;stroke-width:18;stroke-linejoin:round;stroke-miterlimit:10;}
	.st36{fill:none;stroke:#3D3D3D;stroke-width:18;stroke-linejoin:round;stroke-miterlimit:10;}
	.st37{fill:none;stroke:#3D3D3D;stroke-miterlimit:10;}
</style>
<g id="Layer_3" class="st0">
</g>
<g id="Layer_1">
	<g>
		<path class="st5" d="M423.31,119.1c-14.65-14.65-34.14-22.72-54.86-22.72c-13.81,0-27.06,3.6-38.71,10.33
			c2.37,1.97,4.67,4.05,6.88,6.26c5.96,5.96,11.05,12.56,15.22,19.64c5.21-2.09,10.82-3.2,16.61-3.2c11.9,0,23.09,4.63,31.5,13.05
			c17.37,17.37,17.37,45.63,0,63.01L256.02,349.4c-8.2,8.2-19.03,12.79-30.59,13.03l-28.14,28.14c8.59,3.22,17.78,4.91,27.23,4.91
			c20.72,0,40.21-8.07,54.86-22.72l143.94-143.94C453.56,198.57,453.56,149.35,423.31,119.1z"/>
	</g>
	<g>
		<path class="st6" d="M123.55,403.63c-20.72,0-40.21-8.07-54.86-22.72c-30.25-30.25-30.25-79.47,0-109.72l51.16-51.16
			c6.45-6.45,16.91-6.45,23.36,0c6.45,6.45,6.45,16.91,0,23.36l-51.16,51.16c-17.37,17.37-17.37,45.63,0,63.01
			c8.41,8.41,19.6,13.05,31.5,13.05c11.9,0,23.09-4.63,31.5-13.05L298.99,213.6c8.41-8.41,13.05-19.6,13.05-31.5
			s-4.63-23.09-13.05-31.5c-8.41-8.41-19.6-13.05-31.5-13.05s-23.09,4.63-31.5,13.05l-33.86,33.86c-6.45,6.45-16.91,6.45-23.36,0
			c-6.45-6.45-6.45-16.91,0-23.36l33.86-33.86c14.65-14.65,34.14-22.72,54.86-22.72s40.21,8.07,54.86,22.72s22.72,34.14,22.72,54.86
			c0,20.72-8.07,40.21-22.72,54.86L178.41,380.9C163.75,395.55,144.27,403.63,123.55,403.63z"/>
		<path class="st6" d="M80.37,385.74c-4.23,0-8.45-1.61-11.68-4.84c-30.25-30.25-30.25-79.47,0-109.72l60.45-60.45
			c20.73-20.73,54.45-20.73,75.18,0c10.04,10.04,15.57,23.39,15.57,37.59c0,14.2-5.53,27.55-15.57,37.59l-30.51,30.51
			c-6.45,6.45-16.91,6.45-23.36,0c-6.45-6.45-6.45-16.91,0-23.36l30.51-30.52c3.8-3.8,5.89-8.85,5.89-14.23s-2.09-10.43-5.89-14.23
			c-7.85-7.85-20.61-7.85-28.46,0l-60.45,60.45c-17.37,17.37-17.37,45.63,0,63.01c6.45,6.45,6.45,16.91,0,23.36
			C88.82,384.13,84.59,385.74,80.37,385.74z"/>
	</g>
</g>
<g id="Layer_2" class="st0">
</g>
</svg>
