<?xml version="1.0" encoding="utf-8"?>
<!-- Generator: Adobe Illustrator 20.1.0, SVG Export Plug-In . SVG Version: 6.00 Build 0)  -->
<svg version="1.1" xmlns="http://www.w3.org/2000/svg" xmlns:xlink="http://www.w3.org/1999/xlink" x="0px" y="0px"
	 viewBox="0 0 500 500" style="enable-background:new 0 0 500 500;" xml:space="preserve">
<style type="text/css">
	.st0{display:none;}
	.st1{display:inline;fill:#2D4059;}
	.st2{display:inline;fill:#EA5455;}
	.st3{display:inline;fill:none;stroke:#2D4059;stroke-width:36;stroke-linecap:round;stroke-linejoin:round;stroke-miterlimit:10;}
	.st4{display:inline;fill:none;stroke:#EA5455;stroke-width:36;stroke-linecap:round;stroke-linejoin:round;stroke-miterlimit:10;}
	.st5{fill:none;stroke:#EA5455;stroke-width:36;stroke-linecap:round;stroke-linejoin:round;stroke-miterlimit:10;}
	.st6{fill:none;stroke:#2D4059;stroke-width:36;stroke-linecap:round;stroke-linejoin:round;stroke-miterlimit:10;}
	.st7{fill:#FFFFFF;}
	.st8{fill:#EA5455;}
	.st9{fill:none;stroke:#2D4059;stroke-width:36.0358;stroke-linecap:round;stroke-linejoin:round;stroke-miterlimit:10;}
	.st10{fill:none;stroke:#FFFFFF;stroke-width:26;stroke-linecap:round;stroke-linejoin:round;stroke-miterlimit:10;}
	.st11{fill:none;stroke:#2D4059;stroke-width:26;stroke-linecap:round;stroke-linejoin:round;stroke-miterlimit:10;}
	.st12{fill:#EA5454;}
	.st13{fill:#EA5454;stroke:#EA5455;stroke-width:36;stroke-linecap:round;stroke-linejoin:round;stroke-miterlimit:10;}
	.st14{fill:#2D4059;}
	.st15{fill:#2D3F59;}
	.st16{fill:none;stroke:#FFFFFF;stroke-width:26;stroke-miterlimit:10;}
	.st17{fill:#FFFFFF;stroke:#FFFFFF;stroke-width:60;stroke-linejoin:round;stroke-miterlimit:10;}
	.st18{fill:#2D4059;stroke:#2D4059;stroke-width:36;stroke-linecap:round;stroke-linejoin:round;stroke-miterlimit:10;}
	.st19{fill:none;stroke:#2D4059;stroke-width:31;stroke-linecap:round;stroke-linejoin:round;stroke-miterlimit:10;}
	.st20{fill:none;stroke:#EA5455;stroke-width:26;stroke-linecap:round;stroke-linejoin:round;stroke-miterlimit:10;}
	.st21{fill:none;stroke:#2D4059;stroke-width:36;stroke-linecap:round;stroke-miterlimit:10;}
	.st22{fill:#EA5455;stroke:#FFFFFF;stroke-width:2.4678;stroke-linejoin:round;stroke-miterlimit:10;}
	.st23{fill:none;stroke:#2D4059;stroke-width:37;stroke-linecap:round;stroke-linejoin:round;stroke-miterlimit:10;}
	.st24{fill:none;stroke:#2D4059;stroke-width:36.3171;stroke-linecap:round;stroke-linejoin:round;stroke-miterlimit:10;}
	.st25{fill:none;stroke:#2D4059;stroke-width:20;stroke-linecap:round;stroke-linejoin:round;stroke-miterlimit:10;}
	.st26{fill:none;stroke:#EA5455;stroke-width:20;stroke-linejoin:round;stroke-miterlimit:10;}
	.st27{fill:#FFFFFF;stroke:#000000;stroke-width:18;stroke-miterlimit:10;}
	.st28{fill:none;stroke:#000000;stroke-width:18;stroke-miterlimit:10;}
	.st29{fill:#FFFFFF;stroke:#000000;stroke-width:18;stroke-linecap:round;stroke-linejoin:round;stroke-miterlimit:10;}
	.st30{stroke:#FFFFFF;stroke-width:18;stroke-linecap:round;stroke-linejoin:round;stroke-miterlimit:10;}
	.st31{fill:none;stroke:#FFFFFF;stroke-width:18;stroke-linecap:round;stroke-linejoin:round;stroke-miterlimit:10;}
	.st32{fill:#313E4B;stroke:#3D3D3D;stroke-width:18;stroke-linejoin:round;stroke-miterlimit:10;}
	.st33{fill:none;stroke:#3D3D3D;stroke-width:18;stroke-linecap:round;stroke-linejoin:round;stroke-miterlimit:10;}
	.st34{fill:none;stroke:#2D4059;stroke-width:18;stroke-linejoin:round;stroke-miterlimit:10;}
	.st35{fill:none;stroke:#EA5455;stroke-width:18;stroke-linejoin:round;stroke-miterlimit:10;}
	.st36{fill:#313E4B;}
	.st37{fill:none;stroke:#2D4059;stroke-width:20;stroke-linejoin:round;stroke-miterlimit:10;}
	.st38{fill:#313E4B;stroke:#FFFFFF;stroke-width:18;stroke-linejoin:round;stroke-miterlimit:10;}
	.st39{fill:#FFFFFF;stroke:#FFFFFF;stroke-width:18;stroke-linejoin:round;stroke-miterlimit:10;}
	.st40{fill:none;stroke:#FFFFFF;stroke-width:18;stroke-linejoin:round;stroke-miterlimit:10;}
	.st41{fill:none;stroke:#3D3D3D;stroke-width:18;stroke-linejoin:round;stroke-miterlimit:10;}
	.st42{fill:none;stroke:#3D3D3D;stroke-miterlimit:10;}
</style>
<g id="Layer_3" class="st0">
</g>
<g id="Layer_1">
	<path class="st6" d="M450,375.8V124.2c0-17.4-14.1-31.6-31.6-31.6H123.7c-17.4,0-31.6,14.1-31.6,31.6v86.6l-37.3,30.3
		c-4.9,3.2-6.3,9.7-3.1,14.6c0.8,1.3,1.9,2.3,3.1,3.1l37.3,30.3v86.6c0,17.4,14.1,31.6,31.6,31.6h294.8
		C435.9,407.3,450,393.2,450,375.8z"/>
	<path class="st12" d="M364.2,262.5c-2.9-9.7-12.7-15.5-22.6-13.3l-14.3,3.7l-8.4-32.5l14.3-3.7c10.4-2.3,16.9-12.6,14.6-22.9
		c-2.3-10.4-12.6-16.9-22.9-14.6c-0.4,0.1-0.9,0.2-1.3,0.3l-14.3,3.7l-3.5-14c-3-10.2-13.7-16-23.9-13c-9.7,2.9-15.5,12.7-13.3,22.6
		l3.7,14.3l-32.5,8.4l-3.7-14.3c-2.3-10.4-12.6-16.9-22.9-14.6c-10.4,2.3-16.9,12.6-14.6,22.9c0.1,0.4,0.2,0.9,0.3,1.3l3.7,14.3
		l-14,3.5c-10.1,3.1-15.8,13.9-12.7,24c2.4,7.7,9.4,13.2,17.5,13.5l-0.3,0.2c1.6,0,3.2-0.2,4.8-0.6l14.3-3.7l8.4,32.5l-14.3,3.7
		c-10.4,2.3-16.9,12.6-14.6,22.9c2.3,10.4,12.6,16.9,22.9,14.6c0.4-0.1,0.9-0.2,1.3-0.3l14.3-3.7l3.8,14.1c3,10.2,13.7,16,23.9,13
		c9.7-2.9,15.5-12.7,13.3-22.6l-3.7-14.3l32.5-8.4l3.7,14.3c2.3,10.4,12.6,16.9,22.9,14.6c10.4-2.3,16.9-12.6,14.6-22.9
		c-0.1-0.4-0.2-0.9-0.3-1.3l-3.7-14.3l14-3.5C361.4,283.3,367.2,272.6,364.2,262.5z M257.8,271l-8.4-32.5l32.5-8.4l8.4,32.5
		L257.8,271z"/>
</g>
<g id="Layer_2">
</g>
</svg>
