<?xml version="1.0" encoding="utf-8"?>
<!-- Generator: Adobe Illustrator 20.1.0, SVG Export Plug-In . SVG Version: 6.00 Build 0)  -->
<svg version="1.1" xmlns="http://www.w3.org/2000/svg" xmlns:xlink="http://www.w3.org/1999/xlink" x="0px" y="0px"
	 viewBox="0 0 500 500" style="enable-background:new 0 0 500 500;" xml:space="preserve">
<style type="text/css">
	.st0{display:none;}
	.st1{display:inline;fill:#2D4059;}
	.st2{display:inline;fill:#EA5455;}
	.st3{display:inline;fill:none;stroke:#2D4059;stroke-width:36;stroke-linecap:round;stroke-linejoin:round;stroke-miterlimit:10;}
	.st4{display:inline;fill:none;stroke:#EA5455;stroke-width:36;stroke-linecap:round;stroke-linejoin:round;stroke-miterlimit:10;}
	.st5{fill:none;stroke:#EA5455;stroke-width:36;stroke-linecap:round;stroke-linejoin:round;stroke-miterlimit:10;}
	.st6{fill:none;stroke:#2D4059;stroke-width:36;stroke-linecap:round;stroke-linejoin:round;stroke-miterlimit:10;}
	.st7{fill:#FFFFFF;}
	.st8{fill:#EA5455;}
	.st9{fill:none;stroke:#2D4059;stroke-width:36.0358;stroke-linecap:round;stroke-linejoin:round;stroke-miterlimit:10;}
	.st10{fill:none;stroke:#FFFFFF;stroke-width:26;stroke-linecap:round;stroke-linejoin:round;stroke-miterlimit:10;}
	.st11{fill:none;stroke:#2D4059;stroke-width:26;stroke-linecap:round;stroke-linejoin:round;stroke-miterlimit:10;}
	.st12{fill:#EA5454;}
	.st13{fill:#EA5454;stroke:#EA5455;stroke-width:36;stroke-linecap:round;stroke-linejoin:round;stroke-miterlimit:10;}
	.st14{fill:#2D4059;}
	.st15{fill:#2D3F59;}
	.st16{fill:none;stroke:#FFFFFF;stroke-width:26;stroke-miterlimit:10;}
	.st17{fill:#FFFFFF;stroke:#FFFFFF;stroke-width:60;stroke-linejoin:round;stroke-miterlimit:10;}
	.st18{fill:#2D4059;stroke:#2D4059;stroke-width:36;stroke-linecap:round;stroke-linejoin:round;stroke-miterlimit:10;}
	.st19{fill:none;stroke:#2D4059;stroke-width:31;stroke-linecap:round;stroke-linejoin:round;stroke-miterlimit:10;}
	.st20{fill:none;stroke:#EA5455;stroke-width:26;stroke-linecap:round;stroke-linejoin:round;stroke-miterlimit:10;}
	.st21{fill:none;stroke:#2D4059;stroke-width:36;stroke-linecap:round;stroke-miterlimit:10;}
	.st22{fill:#EA5455;stroke:#FFFFFF;stroke-width:2.4678;stroke-linejoin:round;stroke-miterlimit:10;}
	.st23{fill:none;stroke:#2D4059;stroke-width:37;stroke-linecap:round;stroke-linejoin:round;stroke-miterlimit:10;}
	.st24{fill:none;stroke:#2D4059;stroke-width:36.3171;stroke-linecap:round;stroke-linejoin:round;stroke-miterlimit:10;}
	.st25{fill:none;stroke:#2D4059;stroke-width:20;stroke-linecap:round;stroke-linejoin:round;stroke-miterlimit:10;}
	.st26{fill:none;stroke:#EA5455;stroke-width:20;stroke-linejoin:round;stroke-miterlimit:10;}
	.st27{fill:#FFFFFF;stroke:#000000;stroke-width:18;stroke-miterlimit:10;}
	.st28{fill:none;stroke:#000000;stroke-width:18;stroke-miterlimit:10;}
	.st29{fill:#FFFFFF;stroke:#000000;stroke-width:18;stroke-linecap:round;stroke-linejoin:round;stroke-miterlimit:10;}
	.st30{stroke:#FFFFFF;stroke-width:18;stroke-linecap:round;stroke-linejoin:round;stroke-miterlimit:10;}
	.st31{fill:none;stroke:#FFFFFF;stroke-width:18;stroke-linecap:round;stroke-linejoin:round;stroke-miterlimit:10;}
	.st32{fill:#313E4B;stroke:#3D3D3D;stroke-width:18;stroke-linejoin:round;stroke-miterlimit:10;}
	.st33{fill:none;stroke:#3D3D3D;stroke-width:18;stroke-linecap:round;stroke-linejoin:round;stroke-miterlimit:10;}
	.st34{fill:none;stroke:#2D4059;stroke-width:18;stroke-linejoin:round;stroke-miterlimit:10;}
	.st35{fill:none;stroke:#EA5455;stroke-width:18;stroke-linejoin:round;stroke-miterlimit:10;}
	.st36{fill:#313E4B;}
	.st37{fill:none;stroke:#2D4059;stroke-width:20;stroke-linejoin:round;stroke-miterlimit:10;}
	.st38{fill:#313E4B;stroke:#FFFFFF;stroke-width:18;stroke-linejoin:round;stroke-miterlimit:10;}
	.st39{fill:#FFFFFF;stroke:#FFFFFF;stroke-width:18;stroke-linejoin:round;stroke-miterlimit:10;}
	.st40{fill:none;stroke:#FFFFFF;stroke-width:18;stroke-linejoin:round;stroke-miterlimit:10;}
	.st41{fill:none;stroke:#3D3D3D;stroke-width:18;stroke-linejoin:round;stroke-miterlimit:10;}
	.st42{fill:none;stroke:#3D3D3D;stroke-miterlimit:10;}
</style>
<g id="Layer_3" class="st0">
</g>
<g id="Layer_1">
	<path class="st6" d="M350,301.1V107.4c0-13.1-10.6-23.7-23.7-23.7H105.2c-13.1,0-23.7,10.6-23.7,23.7v57.4l-27.9,32.8
		c-3.7,2.4-4.7,7.3-2.3,10.9c0.6,0.9,1.4,1.7,2.3,2.3l27.9,32.8v57.4c0,13.1,10.6,23.7,23.7,23.7h221.1
		C339.4,324.8,350,314.1,350,301.1z"/>
	<path class="st6" d="M200,375.7v20.8c0,10.9,8.8,19.7,19.7,19.7H404c10.9,0,19.7-8.8,19.7-19.7v-42l23.3-24.8c0.8-0.5,1.5-1.2,2-2
		c2-3,1.1-7.1-2-9.1l-23.3-24.8v-42c0-10.9-8.8-19.7-19.7-19.7h-3"/>
	<path class="st12" d="M163,224.2h-20c-5.5,0-10-4.5-10-10v-20c0-5.5,4.5-10,10-10h20c5.5,0,10,4.5,10,10v20
		C173,219.8,168.5,224.2,163,224.2z"/>
	<path class="st12" d="M223,224.2h-20c-5.5,0-10-4.5-10-10v-20c0-5.5,4.5-10,10-10h20c5.5,0,10,4.5,10,10v20
		C233,219.8,228.5,224.2,223,224.2z"/>
	<path class="st12" d="M283,224.2h-20c-5.5,0-10-4.5-10-10v-20c0-5.5,4.5-10,10-10h20c5.5,0,10,4.5,10,10v20
		C293,219.8,288.5,224.2,283,224.2z"/>
</g>
<g id="Layer_2">
</g>
</svg>
