<?xml version="1.0" encoding="utf-8"?>
<!-- Generator: Adobe Illustrator 23.0.2, SVG Export Plug-In . SVG Version: 6.00 Build 0)  -->
<svg version="1.1" xmlns="http://www.w3.org/2000/svg" xmlns:xlink="http://www.w3.org/1999/xlink" x="0px" y="0px"
	 viewBox="0 0 500 500" style="enable-background:new 0 0 500 500;" xml:space="preserve">
<style type="text/css">
	.st0{display:none;}
	.st1{display:inline;fill:#2D4059;}
	.st2{display:inline;fill:#EA5455;}
	.st3{display:inline;fill:none;stroke:#2D4059;stroke-width:36;stroke-linecap:round;stroke-linejoin:round;stroke-miterlimit:10;}
	.st4{display:inline;fill:none;stroke:#EA5455;stroke-width:36;stroke-linecap:round;stroke-linejoin:round;stroke-miterlimit:10;}
	.st5{fill:#EA5455;}
	.st6{fill:#2D4059;}
	.st7{fill:#FFFFFF;}
	.st8{fill:#EA5454;}
	.st9{fill:#2D3F59;}
	.st10{fill:none;}
	.st11{fill:none;stroke:#2D4059;stroke-width:36.0358;stroke-linecap:round;stroke-linejoin:round;stroke-miterlimit:10;}
	.st12{fill:none;stroke:#EA5455;stroke-width:26;stroke-linecap:round;stroke-linejoin:round;stroke-miterlimit:10;}
	.st13{fill:none;stroke:#2D4059;stroke-width:36;stroke-linecap:round;stroke-linejoin:round;stroke-miterlimit:10;}
	.st14{fill:none;stroke:#EA5455;stroke-width:36;stroke-linecap:round;stroke-linejoin:round;stroke-miterlimit:10;}
	.st15{fill:none;stroke:#EA5455;stroke-width:26;stroke-linecap:round;stroke-miterlimit:10;}
	.st16{display:inline;}
	
		.st17{display:inline;fill:none;stroke:#2D4059;stroke-width:36.3171;stroke-linecap:round;stroke-linejoin:round;stroke-miterlimit:10;}
	.st18{display:inline;fill:none;stroke:#2D4059;stroke-width:20;stroke-linecap:round;stroke-linejoin:round;stroke-miterlimit:10;}
	.st19{fill:none;stroke:#2D4059;stroke-width:20;stroke-linecap:round;stroke-linejoin:round;stroke-miterlimit:10;}
	.st20{display:inline;fill:none;stroke:#EA5455;stroke-width:20;stroke-linejoin:round;stroke-miterlimit:10;}
	.st21{display:inline;fill:#FFFFFF;stroke:#000000;stroke-width:18;stroke-miterlimit:10;}
	.st22{display:inline;fill:none;stroke:#000000;stroke-width:18;stroke-miterlimit:10;}
	
		.st23{display:inline;fill:#FFFFFF;stroke:#000000;stroke-width:18;stroke-linecap:round;stroke-linejoin:round;stroke-miterlimit:10;}
	.st24{display:inline;stroke:#FFFFFF;stroke-width:18;stroke-linecap:round;stroke-linejoin:round;stroke-miterlimit:10;}
	.st25{display:inline;fill:none;stroke:#FFFFFF;stroke-width:18;stroke-linecap:round;stroke-linejoin:round;stroke-miterlimit:10;}
	.st26{display:inline;fill:#313E4B;stroke:#3D3D3D;stroke-width:18;stroke-linejoin:round;stroke-miterlimit:10;}
	.st27{display:inline;fill:none;stroke:#3D3D3D;stroke-width:18;stroke-linecap:round;stroke-linejoin:round;stroke-miterlimit:10;}
	.st28{display:inline;fill:none;stroke:#2D4059;stroke-width:18;stroke-linejoin:round;stroke-miterlimit:10;}
	.st29{display:inline;fill:none;stroke:#EA5455;stroke-width:18;stroke-linejoin:round;stroke-miterlimit:10;}
	.st30{display:inline;fill:#313E4B;}
	.st31{display:inline;fill:none;stroke:#2D4059;stroke-width:20;stroke-linejoin:round;stroke-miterlimit:10;}
	.st32{display:inline;fill:#313E4B;stroke:#FFFFFF;stroke-width:18;stroke-linejoin:round;stroke-miterlimit:10;}
	.st33{display:inline;fill:#FFFFFF;stroke:#FFFFFF;stroke-width:18;stroke-linejoin:round;stroke-miterlimit:10;}
	.st34{display:inline;fill:none;stroke:#FFFFFF;stroke-width:18;stroke-linejoin:round;stroke-miterlimit:10;}
	.st35{display:inline;fill:none;stroke:#3D3D3D;stroke-width:18;stroke-linejoin:round;stroke-miterlimit:10;}
	.st36{fill:none;stroke:#3D3D3D;stroke-width:18;stroke-linejoin:round;stroke-miterlimit:10;}
	.st37{fill:none;stroke:#3D3D3D;stroke-miterlimit:10;}
</style>
<g id="Layer_3" class="st0">
</g>
<g id="Layer_1">
	<path class="st6" d="M450,461H50.36c-9.93,0-17.99-8.05-18-17.98L32,158.07C31.99,148.13,40.04,140,49.98,140c0.01,0,0.02,0,0.02,0
		c9.93,0,17.99,8.09,18,18.03L68.33,425h363.66l-0.14-266.08c0-9.94,8.05-17.92,17.99-17.92c0,0,0.01,0,0.01,0
		c9.94,0,18,7.96,18,17.9L468,443.04c0,4.78-1.89,9.33-5.27,12.71S454.78,461,450,461z"/>
	<path class="st6" d="M450,460.15c-4.61,0-9.23-1.76-12.74-5.29L282.21,299.41c-7.02-7.04-7.01-18.44,0.03-25.46
		c7.04-7.02,18.44-7.01,25.46,0.03l155.04,155.45c7.02,7.04,7.01,18.44-0.03,25.46C459.2,458.4,454.6,460.15,450,460.15z"/>
	<path class="st6" d="M50.36,460.15c-4.61,0-9.22-1.76-12.73-5.28c-7.03-7.03-7.02-18.43,0.01-25.46l155.61-155.45
		c7.03-7.03,18.43-7.02,25.46,0.01s7.02,18.43-0.01,25.46L63.08,454.88C59.56,458.39,54.96,460.15,50.36,460.15z"/>
	<path class="st6" d="M249.96,300.27l150.18-125.24l-49.96,0.02C334.56,215.11,295.6,243.5,250,243.5
		c-45.57,0-84.51-28.36-100.16-68.38l-50.12,0.02L249.96,300.27z"/>
	<path class="st6" d="M466.77,150.87c-2.58-7.12-9.35-11.87-16.92-11.87c0,0,0,0-0.01,0l-92.39,0.03
		c-0.17,6.15-0.86,12.16-2.02,18.01l94.42-0.03L249.97,323.7L50,157.15l94.58-0.03c-1.16-5.84-1.86-11.86-2.03-18l-92.55,0.03
		c-7.58,0-14.34,4.76-16.92,11.88s-0.42,15.1,5.41,19.95l199.97,166.55c3.34,2.78,7.43,4.17,11.52,4.17c4.09,0,8.19-1.39,11.53-4.18
		l199.88-166.69C467.2,165.98,469.36,157.99,466.77,150.87z"/>
	<path class="st6" d="M400.14,175.03L249.96,300.27L99.72,175.13l50.12-0.02c-2.26-5.77-4.03-11.79-5.26-18L50,157.15L249.97,323.7
		l199.88-166.69l-94.42,0.03c-1.23,6.21-3,12.23-5.25,18L400.14,175.03z"/>
	<g>
		<circle class="st5" cx="250" cy="136" r="92.2"/>
	</g>
	<path class="st7" d="M233.67,172.73c-0.38,0-0.76-0.02-1.13-0.05c-3.44-0.3-6.62-1.96-8.84-4.61l-23.67-28.32
		c-4.6-5.51-3.87-13.71,1.64-18.31c5.51-4.61,13.71-3.87,18.31,1.64l15.3,18.31l46.35-39.04c5.49-4.63,13.69-3.92,18.32,1.57
		c4.63,5.49,3.92,13.69-1.57,18.32l-56.33,47.45C239.69,171.65,236.72,172.73,233.67,172.73z"/>
</g>
<g id="Layer_2" class="st0">
</g>
</svg>
