<svg id="Layer_1" data-name="Layer 1" xmlns="http://www.w3.org/2000/svg" viewBox="0 0 400 400"><defs><style>.cls-1,.cls-2{fill:#2d4059;}.cls-1{fill-rule:evenodd;}.cls-3{fill:#ea5454;}</style></defs><path class="cls-1" d="M123.47,204.33a19.46,19.46,0,0,1-19.34-19.18,19.18,19.18,0,1,1,19.34,19.18Z"/><path class="cls-1" d="M187.31,204.33A19.46,19.46,0,0,1,168,185.15a19.19,19.19,0,1,1,19.34,19.18Z"/><path class="cls-1" d="M251.15,204.33a19.46,19.46,0,0,1-19.34-19.18,19.19,19.19,0,0,1,38.37,0A19,19,0,0,1,251.15,204.33Z"/><path class="cls-2" d="M327,185v45.23a50.08,50.08,0,0,1-50,50H200.5a39.07,39.07,0,0,0-27.84,11.38l-44.9,44.6V309.77A29.81,29.81,0,0,0,98,280a50.11,50.11,0,0,1-50.34-50.33V140.34a50.09,50.09,0,0,1,50-50h131.2a83.34,83.34,0,0,1,8.89-27.62H97.68A77.73,77.73,0,0,0,20,140.34v89.32a77.74,77.74,0,0,0,78,78,2.05,2.05,0,0,1,2.15,2.15v29.15a26.37,26.37,0,0,0,16.33,24.43,26.75,26.75,0,0,0,10.26,2,26.47,26.47,0,0,0,18.75-7.77l46.68-46.38a11.6,11.6,0,0,1,8.34-3.32h76.43a77.73,77.73,0,0,0,77.65-77.65v-55A82.47,82.47,0,0,1,327,185Z"/><path class="cls-3" d="M312.93,169.27a67.68,67.68,0,0,1-47.72-19.78A66.69,66.69,0,0,1,245,101.75c0-37.23,30.48-67.53,68-67.53a66.39,66.39,0,0,1,47.41,19.9,67.85,67.85,0,0,1,.38,95.2A66.38,66.38,0,0,1,312.93,169.27Zm0-107.42c-22.23,0-40.33,17.9-40.33,39.9,0,21.63,18.47,39.9,40.33,39.9,22.14,0,39.48-17.53,39.48-39.9a39.81,39.81,0,0,0-11.68-28.18A39,39,0,0,0,312.93,61.85Z"/></svg>