<?xml version="1.0" encoding="utf-8"?>
<!-- Generator: Adobe Illustrator 23.0.2, SVG Export Plug-In . SVG Version: 6.00 Build 0)  -->
<svg version="1.1" xmlns="http://www.w3.org/2000/svg" xmlns:xlink="http://www.w3.org/1999/xlink" x="0px" y="0px"
	 viewBox="0 0 500 500" style="enable-background:new 0 0 500 500;" xml:space="preserve">
<style type="text/css">
	.st0{display:none;}
	.st1{display:inline;fill:#2D4059;}
	.st2{display:inline;fill:#EA5455;}
	.st3{display:inline;fill:none;stroke:#2D4059;stroke-width:36;stroke-linecap:round;stroke-linejoin:round;stroke-miterlimit:10;}
	.st4{display:inline;fill:none;stroke:#EA5455;stroke-width:36;stroke-linecap:round;stroke-linejoin:round;stroke-miterlimit:10;}
	.st5{fill:#EA5455;}
	.st6{fill:#2D4059;}
	.st7{fill:#FFFFFF;}
	.st8{fill:#EA5454;}
	.st9{fill:#2D3F59;}
	.st10{fill:none;}
	.st11{fill:none;stroke:#2D4059;stroke-width:36.0358;stroke-linecap:round;stroke-linejoin:round;stroke-miterlimit:10;}
	.st12{fill:none;stroke:#EA5455;stroke-width:26;stroke-linecap:round;stroke-linejoin:round;stroke-miterlimit:10;}
	.st13{fill:none;stroke:#2D4059;stroke-width:36;stroke-linecap:round;stroke-linejoin:round;stroke-miterlimit:10;}
	.st14{fill:none;stroke:#EA5455;stroke-width:36;stroke-linecap:round;stroke-linejoin:round;stroke-miterlimit:10;}
	.st15{fill:none;stroke:#EA5455;stroke-width:26;stroke-linecap:round;stroke-miterlimit:10;}
	.st16{display:inline;}
	
		.st17{display:inline;fill:none;stroke:#2D4059;stroke-width:36.3171;stroke-linecap:round;stroke-linejoin:round;stroke-miterlimit:10;}
	.st18{display:inline;fill:none;stroke:#2D4059;stroke-width:20;stroke-linecap:round;stroke-linejoin:round;stroke-miterlimit:10;}
	.st19{fill:none;stroke:#2D4059;stroke-width:20;stroke-linecap:round;stroke-linejoin:round;stroke-miterlimit:10;}
	.st20{display:inline;fill:none;stroke:#EA5455;stroke-width:20;stroke-linejoin:round;stroke-miterlimit:10;}
	.st21{display:inline;fill:#FFFFFF;stroke:#000000;stroke-width:18;stroke-miterlimit:10;}
	.st22{display:inline;fill:none;stroke:#000000;stroke-width:18;stroke-miterlimit:10;}
	
		.st23{display:inline;fill:#FFFFFF;stroke:#000000;stroke-width:18;stroke-linecap:round;stroke-linejoin:round;stroke-miterlimit:10;}
	.st24{display:inline;stroke:#FFFFFF;stroke-width:18;stroke-linecap:round;stroke-linejoin:round;stroke-miterlimit:10;}
	.st25{display:inline;fill:none;stroke:#FFFFFF;stroke-width:18;stroke-linecap:round;stroke-linejoin:round;stroke-miterlimit:10;}
	.st26{display:inline;fill:#313E4B;stroke:#3D3D3D;stroke-width:18;stroke-linejoin:round;stroke-miterlimit:10;}
	.st27{display:inline;fill:none;stroke:#3D3D3D;stroke-width:18;stroke-linecap:round;stroke-linejoin:round;stroke-miterlimit:10;}
	.st28{display:inline;fill:none;stroke:#2D4059;stroke-width:18;stroke-linejoin:round;stroke-miterlimit:10;}
	.st29{display:inline;fill:none;stroke:#EA5455;stroke-width:18;stroke-linejoin:round;stroke-miterlimit:10;}
	.st30{display:inline;fill:#313E4B;}
	.st31{display:inline;fill:none;stroke:#2D4059;stroke-width:20;stroke-linejoin:round;stroke-miterlimit:10;}
	.st32{display:inline;fill:#313E4B;stroke:#FFFFFF;stroke-width:18;stroke-linejoin:round;stroke-miterlimit:10;}
	.st33{display:inline;fill:#FFFFFF;stroke:#FFFFFF;stroke-width:18;stroke-linejoin:round;stroke-miterlimit:10;}
	.st34{display:inline;fill:none;stroke:#FFFFFF;stroke-width:18;stroke-linejoin:round;stroke-miterlimit:10;}
	.st35{display:inline;fill:none;stroke:#3D3D3D;stroke-width:18;stroke-linejoin:round;stroke-miterlimit:10;}
	.st36{fill:none;stroke:#3D3D3D;stroke-width:18;stroke-linejoin:round;stroke-miterlimit:10;}
	.st37{fill:none;stroke:#3D3D3D;stroke-miterlimit:10;}
</style>
<g id="Layer_3" class="st0">
</g>
<g id="Layer_1">
	<path class="st6" d="M385,468H115c-9.94,0-18-8.06-18-18V75c0-9.94,8.06-18,18-18h270c9.94,0,18,8.06,18,18v375
		C403,459.94,394.94,468,385,468z M133,432h234V93H133V432z"/>
	<path class="st5" d="M324,212h-60c-7.18,0-13-5.82-13-13s5.82-13,13-13h60c7.18,0,13,5.82,13,13S331.18,212,324,212z"/>
	<path class="st6" d="M185,118c-9.94,0-18-8.06-18-18V50c0-9.94,8.06-18,18-18s18,8.06,18,18v50C203,109.94,194.94,118,185,118z"/>
	<path class="st6" d="M250,118c-9.94,0-18-8.06-18-18V50c0-9.94,8.06-18,18-18s18,8.06,18,18v50C268,109.94,259.94,118,250,118z"/>
	<path class="st6" d="M315,118c-9.94,0-18-8.06-18-18V50c0-9.94,8.06-18,18-18s18,8.06,18,18v50C333,109.94,324.94,118,315,118z"/>
	<path class="st5" d="M190.79,216.58c-0.38,0-0.75-0.02-1.13-0.05c-3.44-0.3-6.62-1.96-8.84-4.61l-14.79-17.7
		c-4.6-5.51-3.87-13.71,1.64-18.31c5.51-4.6,13.71-3.87,18.31,1.64l6.42,7.69l25.23-21.25c5.49-4.63,13.69-3.92,18.32,1.57
		c4.63,5.49,3.92,13.69-1.57,18.32l-35.21,29.66C196.82,215.5,193.85,216.58,190.79,216.58z"/>
	<path class="st5" d="M324,292h-60c-7.18,0-13-5.82-13-13s5.82-13,13-13h60c7.18,0,13,5.82,13,13S331.18,292,324,292z"/>
	<path class="st5" d="M190.79,296.58c-0.38,0-0.75-0.02-1.13-0.05c-3.44-0.3-6.62-1.96-8.84-4.61l-14.79-17.7
		c-4.6-5.51-3.87-13.71,1.64-18.31s13.71-3.87,18.31,1.64l6.42,7.69l25.23-21.25c5.49-4.63,13.69-3.92,18.32,1.57
		c4.63,5.49,3.92,13.69-1.57,18.32l-35.21,29.66C196.82,295.5,193.85,296.58,190.79,296.58z"/>
	<path class="st5" d="M304,372h-40c-7.18,0-13-5.82-13-13s5.82-13,13-13h40c7.18,0,13,5.82,13,13S311.18,372,304,372z"/>
	<path class="st5" d="M190.79,376.58c-0.38,0-0.75-0.02-1.13-0.05c-3.44-0.3-6.62-1.96-8.84-4.61l-14.79-17.7
		c-4.6-5.51-3.87-13.71,1.64-18.31s13.71-3.87,18.31,1.64l6.42,7.69l25.23-21.25c5.49-4.63,13.69-3.92,18.32,1.57
		c4.63,5.49,3.92,13.69-1.57,18.32l-35.21,29.66C196.82,375.5,193.85,376.58,190.79,376.58z"/>
</g>
<g id="Layer_2" class="st0">
</g>
</svg>
