<?xml version="1.0" encoding="utf-8"?>
<!-- Generator: Adobe Illustrator 23.0.2, SVG Export Plug-In . SVG Version: 6.00 Build 0)  -->
<svg version="1.1" xmlns="http://www.w3.org/2000/svg" xmlns:xlink="http://www.w3.org/1999/xlink" x="0px" y="0px"
	 viewBox="0 0 500 500" style="enable-background:new 0 0 500 500;" xml:space="preserve">
<style type="text/css">
	.st0{display:none;}
	.st1{display:inline;fill:#2D4059;}
	.st2{display:inline;fill:#EA5455;}
	.st3{display:inline;fill:none;stroke:#2D4059;stroke-width:36;stroke-linecap:round;stroke-linejoin:round;stroke-miterlimit:10;}
	.st4{display:inline;fill:none;stroke:#EA5455;stroke-width:36;stroke-linecap:round;stroke-linejoin:round;stroke-miterlimit:10;}
	.st5{fill:#EA5455;}
	.st6{fill:#2D4059;}
	.st7{fill:#FFFFFF;}
	.st8{fill:#EA5454;}
	.st9{fill:#2D3F59;}
	.st10{fill:none;}
	.st11{fill:none;stroke:#2D4059;stroke-width:36.0358;stroke-linecap:round;stroke-linejoin:round;stroke-miterlimit:10;}
	.st12{fill:none;stroke:#EA5455;stroke-width:26;stroke-linecap:round;stroke-linejoin:round;stroke-miterlimit:10;}
	.st13{fill:none;stroke:#2D4059;stroke-width:36;stroke-linecap:round;stroke-linejoin:round;stroke-miterlimit:10;}
	.st14{fill:none;stroke:#EA5455;stroke-width:36;stroke-linecap:round;stroke-linejoin:round;stroke-miterlimit:10;}
	.st15{fill:none;stroke:#EA5455;stroke-width:26;stroke-linecap:round;stroke-miterlimit:10;}
	.st16{display:inline;}
	
		.st17{display:inline;fill:none;stroke:#2D4059;stroke-width:36.3171;stroke-linecap:round;stroke-linejoin:round;stroke-miterlimit:10;}
	.st18{display:inline;fill:none;stroke:#2D4059;stroke-width:20;stroke-linecap:round;stroke-linejoin:round;stroke-miterlimit:10;}
	.st19{fill:none;stroke:#2D4059;stroke-width:20;stroke-linecap:round;stroke-linejoin:round;stroke-miterlimit:10;}
	.st20{display:inline;fill:none;stroke:#EA5455;stroke-width:20;stroke-linejoin:round;stroke-miterlimit:10;}
	.st21{display:inline;fill:#FFFFFF;stroke:#000000;stroke-width:18;stroke-miterlimit:10;}
	.st22{display:inline;fill:none;stroke:#000000;stroke-width:18;stroke-miterlimit:10;}
	
		.st23{display:inline;fill:#FFFFFF;stroke:#000000;stroke-width:18;stroke-linecap:round;stroke-linejoin:round;stroke-miterlimit:10;}
	.st24{display:inline;stroke:#FFFFFF;stroke-width:18;stroke-linecap:round;stroke-linejoin:round;stroke-miterlimit:10;}
	.st25{display:inline;fill:none;stroke:#FFFFFF;stroke-width:18;stroke-linecap:round;stroke-linejoin:round;stroke-miterlimit:10;}
	.st26{display:inline;fill:#313E4B;stroke:#3D3D3D;stroke-width:18;stroke-linejoin:round;stroke-miterlimit:10;}
	.st27{display:inline;fill:none;stroke:#3D3D3D;stroke-width:18;stroke-linecap:round;stroke-linejoin:round;stroke-miterlimit:10;}
	.st28{display:inline;fill:none;stroke:#2D4059;stroke-width:18;stroke-linejoin:round;stroke-miterlimit:10;}
	.st29{display:inline;fill:none;stroke:#EA5455;stroke-width:18;stroke-linejoin:round;stroke-miterlimit:10;}
	.st30{display:inline;fill:#313E4B;}
	.st31{display:inline;fill:none;stroke:#2D4059;stroke-width:20;stroke-linejoin:round;stroke-miterlimit:10;}
	.st32{display:inline;fill:#313E4B;stroke:#FFFFFF;stroke-width:18;stroke-linejoin:round;stroke-miterlimit:10;}
	.st33{display:inline;fill:#FFFFFF;stroke:#FFFFFF;stroke-width:18;stroke-linejoin:round;stroke-miterlimit:10;}
	.st34{display:inline;fill:none;stroke:#FFFFFF;stroke-width:18;stroke-linejoin:round;stroke-miterlimit:10;}
	.st35{display:inline;fill:none;stroke:#3D3D3D;stroke-width:18;stroke-linejoin:round;stroke-miterlimit:10;}
	.st36{fill:none;stroke:#3D3D3D;stroke-width:18;stroke-linejoin:round;stroke-miterlimit:10;}
	.st37{fill:none;stroke:#3D3D3D;stroke-miterlimit:10;}
</style>
<g id="Layer_3" class="st0">
</g>
<g id="Layer_1">
	<path class="st5" d="M450,400.66H50c-9.94,0-18-8.06-18-18s8.06-18,18-18h400c9.94,0,18,8.06,18,18S459.94,400.66,450,400.66z"/>
	<path class="st6" d="M400,355.34H100c-9.94,0-18-8.06-18-18v-220c0-9.94,8.06-18,18-18h300c9.94,0,18,8.06,18,18v220
		C418,347.29,409.94,355.34,400,355.34z M118,319.34h264v-184H118V319.34z"/>
	<rect x="303.13" y="222.12" class="st5" width="20" height="82.98"/>
	<path class="st5" d="M312.62,236.42c-22.42,0-40.66-18.24-40.66-40.66s18.24-40.66,40.66-40.66s40.66,18.24,40.66,40.66
		S335.04,236.42,312.62,236.42z M312.62,181.1c-8.08,0-14.66,6.58-14.66,14.66s6.58,14.66,14.66,14.66s14.66-6.58,14.66-14.66
		S320.7,181.1,312.62,181.1z"/>
	<rect x="313.13" y="266.28" class="st8" width="27.66" height="27.66"/>
	<path class="st6" d="M240.5,218h-80c-7.18,0-13-5.82-13-13s5.82-13,13-13h80c7.18,0,13,5.82,13,13S247.68,218,240.5,218z"/>
	<path class="st6" d="M210.5,264h-50c-7.18,0-13-5.82-13-13s5.82-13,13-13h50c7.18,0,13,5.82,13,13S217.68,264,210.5,264z"/>
</g>
<g id="Layer_2" class="st0">
</g>
</svg>
