<?xml version="1.0" encoding="utf-8"?>
<!-- Generator: Adobe Illustrator 23.0.2, SVG Export Plug-In . SVG Version: 6.00 Build 0)  -->
<svg version="1.1" xmlns="http://www.w3.org/2000/svg" xmlns:xlink="http://www.w3.org/1999/xlink" x="0px" y="0px"
	 viewBox="0 0 500 500" style="enable-background:new 0 0 500 500;" xml:space="preserve">
<style type="text/css">
	.st0{display:none;}
	.st1{display:inline;fill:#2D4059;}
	.st2{display:inline;fill:#EA5455;}
	.st3{display:inline;fill:none;stroke:#2D4059;stroke-width:36;stroke-linecap:round;stroke-linejoin:round;stroke-miterlimit:10;}
	.st4{display:inline;fill:none;stroke:#EA5455;stroke-width:36;stroke-linecap:round;stroke-linejoin:round;stroke-miterlimit:10;}
	.st5{fill:#EA5455;}
	.st6{fill:#2D4059;}
	.st7{fill:#FFFFFF;}
	.st8{fill:#EA5454;}
	.st9{fill:#2D3F59;}
	.st10{fill:none;}
	.st11{fill:none;stroke:#2D4059;stroke-width:36.0358;stroke-linecap:round;stroke-linejoin:round;stroke-miterlimit:10;}
	.st12{fill:none;stroke:#EA5455;stroke-width:26;stroke-linecap:round;stroke-linejoin:round;stroke-miterlimit:10;}
	.st13{fill:none;stroke:#2D4059;stroke-width:36;stroke-linecap:round;stroke-linejoin:round;stroke-miterlimit:10;}
	.st14{fill:none;stroke:#EA5455;stroke-width:36;stroke-linecap:round;stroke-linejoin:round;stroke-miterlimit:10;}
	.st15{fill:none;stroke:#EA5455;stroke-width:26;stroke-linecap:round;stroke-miterlimit:10;}
	.st16{display:inline;}
	
		.st17{display:inline;fill:none;stroke:#2D4059;stroke-width:36.3171;stroke-linecap:round;stroke-linejoin:round;stroke-miterlimit:10;}
	.st18{display:inline;fill:none;stroke:#2D4059;stroke-width:20;stroke-linecap:round;stroke-linejoin:round;stroke-miterlimit:10;}
	.st19{fill:none;stroke:#2D4059;stroke-width:20;stroke-linecap:round;stroke-linejoin:round;stroke-miterlimit:10;}
	.st20{display:inline;fill:none;stroke:#EA5455;stroke-width:20;stroke-linejoin:round;stroke-miterlimit:10;}
	.st21{display:inline;fill:#FFFFFF;stroke:#000000;stroke-width:18;stroke-miterlimit:10;}
	.st22{display:inline;fill:none;stroke:#000000;stroke-width:18;stroke-miterlimit:10;}
	
		.st23{display:inline;fill:#FFFFFF;stroke:#000000;stroke-width:18;stroke-linecap:round;stroke-linejoin:round;stroke-miterlimit:10;}
	.st24{display:inline;stroke:#FFFFFF;stroke-width:18;stroke-linecap:round;stroke-linejoin:round;stroke-miterlimit:10;}
	.st25{display:inline;fill:none;stroke:#FFFFFF;stroke-width:18;stroke-linecap:round;stroke-linejoin:round;stroke-miterlimit:10;}
	.st26{display:inline;fill:#313E4B;stroke:#3D3D3D;stroke-width:18;stroke-linejoin:round;stroke-miterlimit:10;}
	.st27{display:inline;fill:none;stroke:#3D3D3D;stroke-width:18;stroke-linecap:round;stroke-linejoin:round;stroke-miterlimit:10;}
	.st28{display:inline;fill:none;stroke:#2D4059;stroke-width:18;stroke-linejoin:round;stroke-miterlimit:10;}
	.st29{display:inline;fill:none;stroke:#EA5455;stroke-width:18;stroke-linejoin:round;stroke-miterlimit:10;}
	.st30{display:inline;fill:#313E4B;}
	.st31{display:inline;fill:none;stroke:#2D4059;stroke-width:20;stroke-linejoin:round;stroke-miterlimit:10;}
	.st32{display:inline;fill:#313E4B;stroke:#FFFFFF;stroke-width:18;stroke-linejoin:round;stroke-miterlimit:10;}
	.st33{display:inline;fill:#FFFFFF;stroke:#FFFFFF;stroke-width:18;stroke-linejoin:round;stroke-miterlimit:10;}
	.st34{display:inline;fill:none;stroke:#FFFFFF;stroke-width:18;stroke-linejoin:round;stroke-miterlimit:10;}
	.st35{display:inline;fill:none;stroke:#3D3D3D;stroke-width:18;stroke-linejoin:round;stroke-miterlimit:10;}
	.st36{fill:none;stroke:#3D3D3D;stroke-width:18;stroke-linejoin:round;stroke-miterlimit:10;}
	.st37{fill:none;stroke:#3D3D3D;stroke-miterlimit:10;}
</style>
<g id="Layer_3" class="st0">
</g>
<g id="Layer_1">
	<path class="st5" d="M320.82,270.71c4.44-1.97,6.41-6.9,4.44-11.34c-1.48-2.96-3.95-4.93-6.9-5.43c-1.48,0-2.96,0-4.44,0.49
		c0,0-4.93,1.97-9.86,1.48c-4.93-0.49-9.37-3.45-9.37-3.45c-3.95-2.96-9.37-1.97-12.33,1.97c-2.96,3.95-1.97,9.37,1.97,12.33
		c0.99,0.49,7.89,5.43,17.76,6.91C311.45,274.65,319.84,271.2,320.82,270.71z"/>
	<path class="st5" d="M408.12,268.73c-1.48-2.96-3.95-4.93-6.9-5.43c-1.48,0-2.96,0-4.44,0.49c0,0-4.93,1.97-9.86,1.48
		c-4.93-0.49-9.37-3.45-9.37-3.45c-3.95-2.96-9.37-1.97-12.33,1.97c-2.96,3.95-1.97,9.37,1.97,12.33c0.99,0.49,7.89,5.43,17.76,6.9
		c9.86,0.99,17.76-1.97,18.74-2.47C407.63,278.6,409.6,273.17,408.12,268.73z"/>
	<path class="st5" d="M339.57,315.59c-27.62-3.45-41.43,22.69-41.92,23.67c-2.47,4.44-0.49,9.37,3.45,11.84
		c4.44,2.47,9.37,0.49,11.84-3.45c0.49-0.49,8.88-16.28,24.66-14.3c15.78,1.97,20.71,19.24,20.71,19.73
		c0.99,4.44,5.92,7.4,10.85,6.41c4.93-0.99,7.4-5.92,6.41-10.85C374.58,347.15,367.19,319.04,339.57,315.59z"/>
	<g>
		<path class="st5" d="M418.9,215.1c-34.55-34.55-86.09-42-127.98-22.36c0.94,10.06,0.72,20.2-0.66,30.21
			c14.66-9.93,31.7-14.91,48.74-14.91c22.28,0,44.56,8.48,61.52,25.44c33.92,33.92,33.92,89.12,0,123.04
			c-33.92,33.92-89.12,33.92-123.04,0c-16.1-16.1-24.54-36.98-25.36-58.11c-7.4,7.22-15.44,13.39-23.94,18.5
			c4.17,21.27,14.47,41.56,30.91,58c22.03,22.03,50.97,33.04,79.9,33.04s57.87-11.01,79.9-33.04
			C462.96,330.85,462.96,259.16,418.9,215.1z M409.71,365.71L409.71,365.71L409.71,365.71z"/>
	</g>
	<path class="st6" d="M131.94,189.34c2.96,0,5.92-1.97,7.4-4.93c1.97-4.44,0.49-9.37-3.95-11.84c-0.99-0.49-8.88-3.95-18.74-3.45
		c-9.86,0.49-17.26,5.43-17.76,5.92c-3.95,2.47-4.93,7.89-2.47,12.33c2.47,4.44,7.89,4.93,12.33,2.47c0,0,4.44-2.96,9.37-2.96
		c4.93-0.49,9.86,1.97,9.86,1.97C128.98,189.34,130.46,189.83,131.94,189.34z"/>
	<path class="st6" d="M218.25,167.14c-0.99-0.49-8.88-3.95-18.74-3.45c-9.86,0.49-17.26,5.43-17.76,5.92
		c-3.95,2.47-4.93,7.89-2.47,12.33c2.47,3.95,7.89,4.93,12.33,2.47c0,0,4.44-2.96,9.37-2.96c4.93-0.49,9.86,1.97,9.86,1.97
		c1.48,0.49,2.96,0.99,4.44,0.99c2.96,0,5.92-1.97,7.4-4.93C224.17,174.54,222.69,169.12,218.25,167.14z"/>
	<path class="st6" d="M197.04,226.82c-4.44-1.48-9.37,0.99-10.85,5.92c0,0-5.43,17.76-21.7,18.74
		c-15.78,0.99-23.67-14.8-23.67-15.29c-1.97-4.44-7.4-6.41-11.84-4.44s-6.41,7.4-4.44,11.84c0.49,0.99,13.32,27.62,40.94,25.65
		c27.62-1.97,36.5-29.59,36.99-31.07C204.44,233.23,201.48,228.3,197.04,226.82z"/>
	<path class="st6" d="M161,317.95c-28.94,0-57.87-11.01-79.9-33.04c-44.06-44.06-44.06-115.75,0-159.81
		c44.06-44.06,115.75-44.06,159.81,0c44.06,44.06,44.06,115.75,0,159.81l0,0C218.87,306.93,189.94,317.95,161,317.95z M161,118.04
		c-22.28,0-44.56,8.48-61.52,25.44c-33.92,33.92-33.92,89.12,0,123.04c33.92,33.92,89.11,33.92,123.04,0
		c33.92-33.92,33.92-89.12,0-123.04C205.56,126.52,183.28,118.04,161,118.04z M231.71,275.71L231.71,275.71L231.71,275.71z"/>
</g>
<g id="Layer_2" class="st0">
</g>
</svg>
