<?xml version="1.0" encoding="utf-8"?>
<!-- Generator: Adobe Illustrator 23.0.1, SVG Export Plug-In . SVG Version: 6.00 Build 0)  -->
<svg version="1.1" id="Layer_1" xmlns="http://www.w3.org/2000/svg" xmlns:xlink="http://www.w3.org/1999/xlink" x="0px" y="0px"
	 viewBox="0 0 500 500" style="enable-background:new 0 0 500 500;" xml:space="preserve">
<style type="text/css">
	.st0{display:none;fill:#FFFFFF;}
	.st1{fill:#2D4059;}
	.st2{fill:#EA5455;}
</style>
<rect class="st0" width="500" height="500"/>
<path class="st1" d="M279.65,383.78c-14.37,4.91-29.77,7.57-45.78,7.57c-32.78,0-107.4,0.74-141.97,1.1
	c-0.01-34.56-0.03-109.29-0.03-143.1c0-78.3,63.7-142,142-142s142,63.7,142,142c0,1.08-0.02,2.15-0.04,3.22
	c12.78,1.61,24.75,5.81,35.38,12.06c0.43-5.04,0.66-10.13,0.66-15.28c0-98.15-79.85-178-178-178s-178,79.85-178,178
	c0,44.78,0.03,161.3,0.03,161.3c0,4.81,1.93,9.42,5.34,12.8c3.37,3.33,7.92,5.2,12.66,5.2c0.07,0,0.13,0,0.2,0
	c1.16-0.01,116.77-1.29,159.77-1.29c24.04,0,46.99-4.8,67.93-13.48C292.53,405.49,284.95,395.27,279.65,383.78z"/>
<g>
	<g>
		<path class="st2" d="M363.24,306.93c20.65,0,37.5,16.78,37.5,37.35c0,20.57-16.85,37.35-37.5,37.35s-37.5-16.78-37.5-37.35
			C325.74,323.71,342.59,306.93,363.24,306.93 M363.24,296.22c-26.59,0-48.21,21.56-48.21,48.07s21.63,48.07,48.21,48.07
			s48.21-21.56,48.21-48.07S389.82,296.22,363.24,296.22L363.24,296.22z"/>
	</g>
	<g>
		<path class="st2" d="M353.46,264.84l-6.22,19.23c-5.05,1.39-10.21,3.3-14.67,5.82l-17.85-9.82l-15.88,15.72l9.79,17.59
			c-2.54,4.44-4.1,9.23-5.49,14.26l-19.01,5.49v22.3l18.99,5.49c1.39,5.03,3.15,9.82,5.69,14.26l-9.94,17.6l15.74,15.73l17.64-9.79
			c4.46,2.53,9.25,4.94,14.3,6.32l5.5,19.79h22.39l5.51-19.79c5.05-1.39,9.86-3.58,14.32-6.1l17.67,9.68l15.8-15.79l-9.83-17.63
			c2.54-4.44,4.96-9.24,6.35-14.28l19.87-5.5v-22.3l-19.87-5.49c-1.39-5.03-3.59-9.82-6.13-14.26l9.72-17.6l-15.85-15.73l-17.7,9.79
			c-4.46-2.53-9.28-4.06-14.33-5.45l-5.53-18.92h-20.97V264.84z M363.24,302.63c23.03,0,41.82,18.71,41.82,41.65
			c0,22.94-18.79,41.65-41.82,41.65s-41.82-18.71-41.82-41.65C321.42,321.34,340.21,302.63,363.24,302.63z"/>
	</g>
</g>
<g>
	<circle class="st2" cx="169.08" cy="247.18" r="20.04"/>
</g>
<g>
	<circle class="st2" cx="230.87" cy="247.18" r="20.04"/>
</g>
<g>
	<circle class="st2" cx="292.67" cy="247.18" r="20.04"/>
</g>
</svg>
