<?xml version="1.0" encoding="utf-8"?>
<!-- Generator: Adobe Illustrator 23.0.2, SVG Export Plug-In . SVG Version: 6.00 Build 0)  -->
<svg version="1.1" xmlns="http://www.w3.org/2000/svg" xmlns:xlink="http://www.w3.org/1999/xlink" x="0px" y="0px"
	 viewBox="0 0 500 500" style="enable-background:new 0 0 500 500;" xml:space="preserve">
<style type="text/css">
	.st0{display:none;}
	.st1{display:inline;fill:#2D4059;}
	.st2{display:inline;fill:#EA5455;}
	.st3{display:inline;fill:none;stroke:#2D4059;stroke-width:36;stroke-linecap:round;stroke-linejoin:round;stroke-miterlimit:10;}
	.st4{display:inline;fill:none;stroke:#EA5455;stroke-width:36;stroke-linecap:round;stroke-linejoin:round;stroke-miterlimit:10;}
	.st5{fill:#EA5455;}
	.st6{fill:#2D4059;}
	.st7{fill:#FFFFFF;}
	.st8{fill:#EA5454;}
	.st9{fill:#2D3F59;}
	.st10{fill:none;}
	.st11{fill:none;stroke:#2D4059;stroke-width:36.0358;stroke-linecap:round;stroke-linejoin:round;stroke-miterlimit:10;}
	.st12{fill:none;stroke:#EA5455;stroke-width:26;stroke-linecap:round;stroke-linejoin:round;stroke-miterlimit:10;}
	.st13{fill:none;stroke:#2D4059;stroke-width:36;stroke-linecap:round;stroke-linejoin:round;stroke-miterlimit:10;}
	.st14{fill:none;stroke:#EA5455;stroke-width:36;stroke-linecap:round;stroke-linejoin:round;stroke-miterlimit:10;}
	.st15{fill:none;stroke:#EA5455;stroke-width:26;stroke-linecap:round;stroke-miterlimit:10;}
	.st16{display:inline;}
	
		.st17{display:inline;fill:none;stroke:#2D4059;stroke-width:36.3171;stroke-linecap:round;stroke-linejoin:round;stroke-miterlimit:10;}
	.st18{display:inline;fill:none;stroke:#2D4059;stroke-width:20;stroke-linecap:round;stroke-linejoin:round;stroke-miterlimit:10;}
	.st19{fill:none;stroke:#2D4059;stroke-width:20;stroke-linecap:round;stroke-linejoin:round;stroke-miterlimit:10;}
	.st20{display:inline;fill:none;stroke:#EA5455;stroke-width:20;stroke-linejoin:round;stroke-miterlimit:10;}
	.st21{display:inline;fill:#FFFFFF;stroke:#000000;stroke-width:18;stroke-miterlimit:10;}
	.st22{display:inline;fill:none;stroke:#000000;stroke-width:18;stroke-miterlimit:10;}
	
		.st23{display:inline;fill:#FFFFFF;stroke:#000000;stroke-width:18;stroke-linecap:round;stroke-linejoin:round;stroke-miterlimit:10;}
	.st24{display:inline;stroke:#FFFFFF;stroke-width:18;stroke-linecap:round;stroke-linejoin:round;stroke-miterlimit:10;}
	.st25{display:inline;fill:none;stroke:#FFFFFF;stroke-width:18;stroke-linecap:round;stroke-linejoin:round;stroke-miterlimit:10;}
	.st26{display:inline;fill:#313E4B;stroke:#3D3D3D;stroke-width:18;stroke-linejoin:round;stroke-miterlimit:10;}
	.st27{display:inline;fill:none;stroke:#3D3D3D;stroke-width:18;stroke-linecap:round;stroke-linejoin:round;stroke-miterlimit:10;}
	.st28{display:inline;fill:none;stroke:#2D4059;stroke-width:18;stroke-linejoin:round;stroke-miterlimit:10;}
	.st29{display:inline;fill:none;stroke:#EA5455;stroke-width:18;stroke-linejoin:round;stroke-miterlimit:10;}
	.st30{display:inline;fill:#313E4B;}
	.st31{display:inline;fill:none;stroke:#2D4059;stroke-width:20;stroke-linejoin:round;stroke-miterlimit:10;}
	.st32{display:inline;fill:#313E4B;stroke:#FFFFFF;stroke-width:18;stroke-linejoin:round;stroke-miterlimit:10;}
	.st33{display:inline;fill:#FFFFFF;stroke:#FFFFFF;stroke-width:18;stroke-linejoin:round;stroke-miterlimit:10;}
	.st34{display:inline;fill:none;stroke:#FFFFFF;stroke-width:18;stroke-linejoin:round;stroke-miterlimit:10;}
	.st35{display:inline;fill:none;stroke:#3D3D3D;stroke-width:18;stroke-linejoin:round;stroke-miterlimit:10;}
	.st36{fill:none;stroke:#3D3D3D;stroke-width:18;stroke-linejoin:round;stroke-miterlimit:10;}
	.st37{fill:none;stroke:#3D3D3D;stroke-miterlimit:10;}
</style>
<g id="Layer_3" class="st0">
</g>
<g id="Layer_1">
	<g>
		<path class="st5" d="M183.81,388c-8.21,0-14.47-7.26-13.61-15.43c7.67-73.11,69.59-130.14,144.85-130.14
			c75.41,0,137.44,57.3,144.89,130.63c0.81,7.98-5.63,14.94-13.65,14.94H183.81z"/>
		<circle class="st5" cx="315.04" cy="184.23" r="72.23"/>
	</g>
	<path class="st6" d="M170,277H60c-9.94,0-18-8.06-18-18s8.06-18,18-18h110c9.94,0,18,8.06,18,18S179.94,277,170,277z"/>
	<path class="st6" d="M115,343H60c-9.94,0-18-8.06-18-18s8.06-18,18-18h55c9.94,0,18,8.06,18,18S124.94,343,115,343z"/>
	<path class="st5" d="M92.55,212.62c-0.52,0-1.05-0.02-1.57-0.07c-4.77-0.42-9.17-2.72-12.24-6.39l-32.55-38.94
		c-6.38-7.63-5.36-18.98,2.27-25.35c7.63-6.38,18.98-5.36,25.35,2.27l20.96,25.07l63.63-53.6c7.6-6.4,18.96-5.43,25.36,2.17
		c6.4,7.6,5.43,18.96-2.17,25.36l-77.45,65.25C100.88,211.13,96.77,212.62,92.55,212.62z"/>
</g>
<g id="Layer_2" class="st0">
</g>
</svg>
